<?xml version="1.0" encoding="UTF-8" standalone="no"?>
<svg
   xmlns:dc="http://purl.org/dc/elements/1.1/"
   xmlns:cc="http://creativecommons.org/ns#"
   xmlns:rdf="http://www.w3.org/1999/02/22-rdf-syntax-ns#"
   xmlns:svg="http://www.w3.org/2000/svg"
   xmlns="http://www.w3.org/2000/svg"
   viewBox="0 0 1122.52 793.70667"
   height="793.70667"
   width="1122.52"
   xml:space="preserve"
   id="svg2"
   version="1.1"><metadata
     id="metadata8"><rdf:RDF><cc:Work
         rdf:about=""><dc:format>image/svg+xml</dc:format><dc:type
           rdf:resource="http://purl.org/dc/dcmitype/StillImage" /></cc:Work></rdf:RDF></metadata><defs
     id="defs6"><clipPath
       id="clipPath38"
       clipPathUnits="userSpaceOnUse"><path
         id="path36"
         d="M 0,595.28 H 841.89 V 0 H 0 Z" /></clipPath></defs><g
     transform="matrix(1.3333333,0,0,-1.3333333,0,793.70667)"
     id="g10"><g
       transform="translate(266.7629,251.5066)"
       id="g12"><path
         id="path14"
         style="fill:#595e63;fill-opacity:1;fill-rule:nonzero;stroke:none"
         d="M 0,0 -0.152,1.277 -4.543,3.366 -10.762,-6.3 v -1.771 h 4.384 z" /></g><g
       transform="translate(503.5852,239.3992)"
       id="g16"><path
         id="path18"
         style="fill:#4dc3c1;fill-opacity:1;fill-rule:nonzero;stroke:none"
         d="m 0,0 h -6.588 v -52.419 h 31.164 v 6.236 H 0 Z" /></g><g
       transform="translate(545.3772,239.3992)"
       id="g20"><path
         id="path22"
         style="fill:#4dc3c1;fill-opacity:1;fill-rule:nonzero;stroke:none"
         d="m 0,0 h -6.588 v -52.419 h 31.163 v 6.236 H 0 Z" /></g><g
       transform="translate(610.2517,233.3054)"
       id="g24"><path
         id="path26"
         style="fill:#4dc3c1;fill-opacity:1;fill-rule:nonzero;stroke:none"
         d="M 0,0 V 6.094 H -31.728 V -46.324 H 0 v 6.236 h -25.209 v 17.703 h 23.937 v 6.164 H -25.209 V 0 Z" /></g><g
       transform="translate(459.3635,210.9207)"
       id="g28"><path
         id="path30"
         style="fill:#4dc3c1;fill-opacity:1;fill-rule:nonzero;stroke:none"
         d="M 0,0 H 23.937 V 6.163 H 0 v 16.222 h 24.997 v 6.094 H -6.518 V -23.94 h 31.727 v 6.236 l -25.209,0 z" /></g><g
       id="g32"><g
         clip-path="url(#clipPath38)"
         id="g34"><g
           transform="translate(310.8865,209.4177)"
           id="g40"><path
             id="path42"
             style="fill:#595e63;fill-opacity:1;fill-rule:nonzero;stroke:none"
             d="m 0,0 h 21.022 c -0.615,-4.875 -2.61,-8.993 -5.791,-11.94 -3.375,-3.128 -7.912,-4.781 -13.122,-4.781 -2.817,0 -5.464,0.51 -7.869,1.519 -2.336,0.981 -4.392,2.407 -6.112,4.241 -1.724,1.838 -3.067,4.038 -3.991,6.54 -0.952,2.583 -1.436,5.426 -1.436,8.449 0,2.942 0.483,5.716 1.435,8.244 0.922,2.452 2.265,4.619 3.99,6.439 1.721,1.817 3.78,3.244 6.119,4.24 2.41,1.025 5.059,1.569 7.864,1.615 8.475,0 13.993,-3.197 16.87,-9.776 l 0.419,-0.953 h 6.561 l -0.794,2.145 c -1.515,4.113 -3.872,7.44 -7.004,9.891 -4.109,3.214 -9.485,4.845 -15.98,4.845 -14.975,0 -25.843,-11.225 -25.843,-26.69 0,-3.882 0.634,-7.537 1.884,-10.867 1.225,-3.263 3.011,-6.139 5.309,-8.547 2.302,-2.413 5.052,-4.288 8.171,-5.574 3.188,-1.316 6.689,-1.984 10.407,-1.984 10.799,0 19.224,5.279 23.114,14.479 1.556,3.586 2.289,7.654 2.305,12.807 l 0.001,1.596 H 0 Z" /></g><g
           transform="translate(255.2668,239.3904)"
           id="g44"><path
             id="path46"
             style="fill:#595e63;fill-opacity:1;fill-rule:nonzero;stroke:none"
             d="m 0,0 -23.628,-50.107 v -2.33 l 6.291,-0.026 8.273,18.235 10.849,23.256 8.513,-18.354 H -2.421 l -2.972,-6.419 h 18.659 l 7.649,-16.698 h 6.113 l 0.056,2.271 L 3.593,0 Z" /></g><g
           transform="translate(366.3977,239.3904)"
           id="g48"><path
             id="path50"
             style="fill:#595e63;fill-opacity:1;fill-rule:nonzero;stroke:none"
             d="m 0,0 -23.629,-50.107 v -2.33 l 6.291,-0.026 8.273,18.235 10.849,23.256 8.513,-18.354 H -2.421 l -2.973,-6.419 h 18.659 l 7.649,-16.698 h 6.115 l 0.054,2.272 L 3.592,0 Z" /></g><g
           transform="translate(423.6326,239.3953)"
           id="g52"><path
             id="path54"
             style="fill:#4dc3c1;fill-opacity:1;fill-rule:nonzero;stroke:none"
             d="m 0,0 c -1.841,0.021 -3.859,0.031 -6.35,0.031 -2.171,0 -4.376,-0.008 -6.446,-0.014 L -13.179,0.016 C -15.09,0.008 -17.062,0 -19.021,0 h -1.597 v -52.409 h 6.513 v 16.659 0.052 6.299 0.783 22.387 h 14.088 c 3.471,0 6.58,-1.152 8.756,-3.245 2.165,-2.083 3.358,-5.057 3.358,-8.376 0,-6.692 -5.095,-11.549 -12.114,-11.549 h -9.789 v -6.299 h 9.789 c 10.792,0 18.625,7.476 18.625,17.778 C 18.608,-7.536 10.78,0 0,0" /></g><g
           transform="translate(462.1008,396.7761)"
           id="g56"><path
             id="path58"
             style="fill:#4dc3c1;fill-opacity:1;fill-rule:nonzero;stroke:none"
             d="m 0,0 c 1.51,-3.655 1.233,-9.685 -0.765,-16.54 -2.627,-9.023 -12.55,-26.51 -26.11,-37.559 -6.509,-5.305 -12.668,-5.783 -14.368,-5.742 -1.698,-0.041 -7.859,0.437 -14.367,5.742 -13.56,11.049 -23.483,28.536 -26.11,37.559 -1.998,6.855 -2.275,12.885 -0.765,16.54 3.256,7.896 25.198,11.854 41.205,12.03 h 0.037 0.038 C -25.199,11.854 -3.256,7.896 0,0" /></g><g
           transform="translate(420.8582,357.8386)"
           id="g60"><path
             id="path62"
             style="fill:#049da7;fill-opacity:1;fill-rule:nonzero;stroke:none"
             d="m 0,0 c -10.185,0 -19.525,3.502 -26.834,9.332 -0.671,0.535 -1.59,-0.285 -1.132,-1.009 4.32,-6.827 10.139,-14.121 16.907,-19.636 5.441,-4.434 10.307,-4.573 10.928,-4.573 0.002,0 0.131,0.003 0.131,0.003 l 0.19,-0.003 c 0.539,0 5.415,0.128 10.87,4.574 6.768,5.515 12.587,12.808 16.907,19.636 0.457,0.723 -0.461,1.543 -1.132,1.009 C 19.526,3.503 10.186,0 0,0" /></g><g
           transform="translate(459.3684,279.0183)"
           id="g64"><path
             id="path66"
             style="fill:#bde9e4;fill-opacity:1;fill-rule:nonzero;stroke:none"
             d="m 0,0 h -23.603 c -0.604,0 -1.093,0.481 -1.093,1.074 0,0.593 0.489,1.073 1.093,1.073 h 22.035 c 2.066,0 3.741,1.646 3.741,3.675 0,2.029 -1.675,3.674 -3.741,3.674 h -15.709 c -0.604,0 -1.094,0.481 -1.094,1.073 0,0.593 0.49,1.075 1.094,1.075 h 12.121 c 2.152,0 3.896,1.711 3.896,3.825 0,2.112 -1.745,3.825 -3.897,3.825 H -22.72 c -0.604,0 -1.093,0.48 -1.093,1.074 0,0.593 0.489,1.073 1.093,1.073 h 12.692 c 1.949,0 3.529,1.552 3.529,3.466 0,1.914 -1.58,3.466 -3.529,3.466 h -12.826 c -0.604,0 -1.094,0.481 -1.094,1.073 0,0.593 0.49,1.075 1.094,1.075 h 7.447 c 1.704,0 3.086,1.356 3.086,3.03 0,1.673 -1.381,3.03 -3.086,3.03 H -29.59 c -0.604,0 -1.094,0.481 -1.094,1.073 0,0.594 0.49,1.075 1.094,1.075 h 7.665 c 1.505,0 2.725,1.198 2.725,2.675 v 10e-4 c 0,1.478 -1.22,2.676 -2.726,2.676 h -10.811 c -0.604,0 -1.094,0.481 -1.094,1.074 0,0.593 0.49,1.074 1.094,1.074 h 2.905 l -0.007,0.009 c 1.205,0 2.145,0.629 2.145,1.727 0,2.322 -5.141,3.649 -10.816,3.651 -5.675,-0.002 -10.816,-1.329 -10.816,-3.651 0,-1.098 0.939,-1.727 2.145,-1.727 l -0.007,-0.009 h 2.904 c 0.604,0 1.094,-0.481 1.094,-1.074 0,-0.593 -0.49,-1.074 -1.094,-1.074 h -10.811 c -1.505,0 -2.725,-1.198 -2.725,-2.676 v -10e-4 c 0,-1.477 1.22,-2.675 2.725,-2.675 h 7.665 c 0.604,0 1.094,-0.481 1.094,-1.075 0,-0.592 -0.49,-1.073 -1.094,-1.073 h -14.183 c -1.705,0 -3.087,-1.357 -3.087,-3.03 0,-1.674 1.382,-3.03 3.087,-3.03 h 7.447 c 0.604,0 1.094,-0.482 1.094,-1.075 0,-0.592 -0.49,-1.073 -1.094,-1.073 h -12.826 c -1.949,0 -3.529,-1.552 -3.529,-3.466 0,-1.914 1.58,-3.466 3.529,-3.466 h 12.691 c 0.604,0 1.094,-0.48 1.094,-1.073 0,-0.594 -0.49,-1.074 -1.094,-1.074 h -17.563 c -2.152,0 -3.896,-1.713 -3.896,-3.825 0,-2.114 1.744,-3.825 3.896,-3.825 h 12.121 c 0.604,0 1.094,-0.482 1.094,-1.075 0,-0.592 -0.49,-1.073 -1.094,-1.073 h -15.709 c -2.066,0 -3.741,-1.645 -3.741,-3.674 0,-2.029 1.675,-3.675 3.741,-3.675 h 22.035 c 0.603,0 1.093,-0.48 1.093,-1.073 C -52.324,0.481 -52.814,0 -53.417,0 H -77.02 c -2.205,0 -3.993,-1.755 -3.993,-3.919 0,-2.165 1.788,-3.92 3.993,-3.92 h 14.623 c 0.604,0 1.093,-0.481 1.093,-1.074 0,-0.593 -0.489,-1.073 -1.093,-1.073 h -10.686 c -0.676,0 -1.337,-0.223 -1.822,-0.648 -1.1,-0.965 -1.041,-2.603 0.725,-3.41 7.943,-3.627 24.009,-5.938 34.918,-6.144 0,-0.01 10e-4,-0.015 10e-4,-0.015 0.242,0 0.49,10e-4 0.739,0.004 h 0.012 0.012 c 0.249,-0.003 0.496,-0.004 0.739,-0.004 0,0 10e-4,0.005 10e-4,0.015 10.908,0.206 26.974,2.517 34.918,6.144 1.766,0.807 1.825,2.445 0.725,3.41 -0.485,0.425 -1.146,0.648 -1.822,0.648 h -10.686 c -0.604,0 -1.093,0.48 -1.093,1.073 0,0.593 0.489,1.074 1.093,1.074 H 0 c 2.205,0 3.992,1.755 3.992,3.92 C 3.992,-1.755 2.205,0 0,0" /></g></g></g></g></svg>