<?xml version="1.0" encoding="UTF-8" standalone="no"?>
<svg
   xmlns:dc="http://purl.org/dc/elements/1.1/"
   xmlns:cc="http://creativecommons.org/ns#"
   xmlns:rdf="http://www.w3.org/1999/02/22-rdf-syntax-ns#"
   xmlns:svg="http://www.w3.org/2000/svg"
   xmlns="http://www.w3.org/2000/svg"
   viewBox="0 0 1122.52 793.70398"
   height="793.70398"
   width="1122.52"
   xml:space="preserve"
   id="svg2"
   version="1.1"><metadata
     id="metadata8"><rdf:RDF><cc:Work
         rdf:about=""><dc:format>image/svg+xml</dc:format><dc:type
           rdf:resource="http://purl.org/dc/dcmitype/StillImage" /></cc:Work></rdf:RDF></metadata><defs
     id="defs6"><clipPath
       id="clipPath18"
       clipPathUnits="userSpaceOnUse"><path
         id="path16"
         d="M 0,595.279 H 841.89 V 0 H 0 Z" /></clipPath></defs><g
     transform="matrix(1.3333333,0,0,-1.3333333,0,793.704)"
     id="g10"><g
       id="g12"><g
         clip-path="url(#clipPath18)"
         id="g14"><g
           transform="translate(263.2468,361.7109)"
           id="g20"><path
             id="path22"
             style="fill:#4dc3c1;fill-opacity:1;fill-rule:nonzero;stroke:none"
             d="m 0,0 c 1.537,-3.72 1.255,-9.855 -0.779,-16.831 -2.673,-9.181 -12.77,-26.975 -26.568,-38.219 -6.623,-5.397 -12.891,-5.884 -14.62,-5.843 -1.729,-0.041 -7.997,0.446 -14.619,5.843 -13.799,11.244 -23.896,29.038 -26.569,38.219 -2.034,6.976 -2.316,13.111 -0.779,16.831 3.313,8.034 25.642,12.063 41.929,12.241 0,0 0.025,0.001 0.038,0 0.013,0.001 0.038,0 0.038,0 C -25.641,12.063 -3.313,8.034 0,0" /></g><g
           transform="translate(221.2796,322.0888)"
           id="g24"><path
             id="path26"
             style="fill:#049da7;fill-opacity:1;fill-rule:nonzero;stroke:none"
             d="m 0,0 c -10.364,0 -19.868,3.564 -27.306,9.497 -0.682,0.544 -1.617,-0.291 -1.151,-1.027 4.395,-6.948 10.317,-14.368 17.204,-19.981 5.536,-4.512 10.487,-4.653 11.12,-4.653 0.001,0 0.133,0.003 0.133,0.003 l 0.194,-0.004 c 0.548,0 5.51,0.131 11.06,4.655 6.887,5.612 12.808,13.033 17.204,19.981 0.466,0.736 -0.469,1.57 -1.151,1.026 C 19.869,3.564 10.365,0 0,0" /></g><g
           transform="translate(260.4661,241.8848)"
           id="g28"><path
             id="path30"
             style="fill:#bde9e4;fill-opacity:1;fill-rule:nonzero;stroke:none"
             d="m 0,0 h -24.017 c -0.614,0 -1.112,0.489 -1.112,1.093 0,0.603 0.498,1.093 1.112,1.093 h 22.421 c 2.103,0 3.808,1.673 3.808,3.738 0,2.065 -1.705,3.738 -3.808,3.738 h -15.985 c -0.614,0 -1.112,0.489 -1.112,1.093 0,0.603 0.498,1.093 1.112,1.093 h 12.334 c 2.19,0 3.965,1.743 3.965,3.892 0,2.151 -1.775,3.893 -3.965,3.893 h -17.871 c -0.615,0 -1.113,0.489 -1.113,1.093 0,0.603 0.498,1.092 1.113,1.092 h 12.913 c 1.984,0 3.592,1.578 3.592,3.527 0,1.947 -1.608,3.526 -3.592,3.526 h -13.05 c -0.615,0 -1.113,0.489 -1.113,1.093 0,0.603 0.498,1.092 1.113,1.092 h 7.577 c 1.735,0 3.141,1.381 3.141,3.084 0,1.703 -1.406,3.084 -3.14,3.084 H -30.11 c -0.615,0 -1.113,0.489 -1.113,1.092 0,0.603 0.498,1.092 1.113,1.092 h 7.8 c 1.532,10e-4 2.773,1.22 2.773,2.724 0,1.504 -1.242,2.723 -2.774,2.723 h -11.001 c -0.614,0 -1.112,0.49 -1.112,1.093 0,0.604 0.498,1.092 1.112,1.092 h 2.957 l -0.007,0.01 c 1.226,0 2.182,0.64 2.182,1.758 0,2.362 -5.232,3.712 -11.006,3.715 -5.775,-0.003 -11.006,-1.353 -11.006,-3.715 0,-1.118 0.956,-1.758 2.182,-1.758 l -0.007,-0.01 h 2.956 c 0.615,0 1.113,-0.488 1.113,-1.092 0,-0.603 -0.498,-1.093 -1.113,-1.093 h -11.001 c -1.532,0 -2.773,-1.219 -2.773,-2.723 0,-1.504 1.241,-2.723 2.773,-2.724 h 7.799 c 0.615,0 1.113,-0.489 1.113,-1.092 0,-0.603 -0.498,-1.092 -1.113,-1.092 h -14.432 c -1.735,0 -3.141,-1.381 -3.141,-3.084 0,-1.703 1.406,-3.084 3.141,-3.084 h 7.578 c 0.615,0 1.113,-0.489 1.113,-1.092 0,-0.604 -0.498,-1.093 -1.113,-1.093 h -13.051 c -1.983,0 -3.591,-1.579 -3.591,-3.526 0,-1.949 1.608,-3.527 3.591,-3.527 h 12.914 c 0.614,0 1.113,-0.489 1.113,-1.092 0,-0.604 -0.499,-1.093 -1.113,-1.093 h -17.871 c -2.19,0 -3.965,-1.742 -3.965,-3.893 0,-2.149 1.775,-3.892 3.965,-3.892 h 12.333 c 0.615,0 1.113,-0.49 1.113,-1.093 0,-0.604 -0.498,-1.093 -1.113,-1.093 h -15.985 c -2.102,0 -3.807,-1.673 -3.807,-3.738 0,-2.065 1.705,-3.738 3.807,-3.738 h 22.422 c 0.614,0 1.112,-0.49 1.112,-1.093 C -53.243,0.489 -53.741,0 -54.355,0 h -24.018 c -2.243,0 -4.062,-1.785 -4.062,-3.988 0,-2.203 1.819,-3.989 4.062,-3.989 h 14.88 c 0.615,0 1.113,-0.489 1.113,-1.092 0,-0.604 -0.498,-1.093 -1.113,-1.093 h -10.874 c -0.688,0 -1.36,-0.227 -1.854,-0.659 -1.119,-0.981 -1.059,-2.649 0.739,-3.47 8.082,-3.69 24.43,-6.042 35.53,-6.252 10e-4,-0.01 10e-4,-0.016 0.002,-0.016 0.246,0 0.498,0.002 0.751,0.005 h 0.013 0.012 c 0.254,-0.003 0.505,-0.005 0.752,-0.005 10e-4,0 10e-4,0.006 10e-4,0.016 11.1,0.21 27.448,2.562 35.531,6.252 1.797,0.821 1.858,2.489 0.738,3.47 -0.494,0.432 -1.166,0.659 -1.854,0.659 h -10.873 c -0.615,0 -1.113,0.489 -1.113,1.093 0,0.603 0.498,1.092 1.113,1.092 H 0 c 2.244,0 4.062,1.786 4.062,3.989 C 4.062,-1.785 2.244,0 0,0" /></g><g
           transform="translate(313.428,349.667)"
           id="g32"><path
             id="path34"
             style="fill:#595e63;fill-opacity:1;fill-rule:nonzero;stroke:none"
             d="M 0,0 -0.154,1.3 -4.623,3.426 -10.951,-6.41 V -8.213 H -6.49 Z" /></g><g
           transform="translate(282.7537,270.9941)"
           id="g36"><path
             id="path38"
             style="fill:#595e63;fill-opacity:1;fill-rule:nonzero;stroke:none"
             d="M 0,0 C 1.63,0 2.954,-0.795 3.789,-1.691 L 2.485,-3.158 c -0.692,0.673 -1.446,1.1 -2.465,1.1 -2.179,0 -3.749,-1.834 -3.749,-4.827 0,-3.036 1.448,-4.87 3.667,-4.87 1.182,0 2.059,0.489 2.812,1.325 l 1.303,-1.447 c -1.079,-1.242 -2.464,-1.935 -4.155,-1.935 -3.382,0 -6.05,2.445 -6.05,6.865 C -6.152,-2.588 -3.422,0 0,0" /></g><g
           transform="translate(290.9866,270.75)"
           id="g40"><path
             id="path42"
             style="fill:#595e63;fill-opacity:1;fill-rule:nonzero;stroke:none"
             d="m 0,0 h 2.363 v -11.326 h 5.52 v -1.997 H 0 Z" /></g><path
           id="path44"
           style="fill:#595e63;fill-opacity:1;fill-rule:nonzero;stroke:none"
           d="m 303.151,270.75 h 2.363 v -13.323 h -2.363 z m 1.793,1.019 h -1.915 l 1.731,2.363 h 2.546 z" /><g
           transform="translate(310.8323,270.75)"
           id="g46"><path
             id="path48"
             style="fill:#595e63;fill-opacity:1;fill-rule:nonzero;stroke:none"
             d="M 0,0 H 2.424 L 6.56,-7.497 7.945,-10.329 H 8.026 C 7.904,-8.964 7.721,-7.273 7.721,-5.785 V 0 H 9.962 V -13.323 H 7.537 L 3.402,-5.826 2.017,-2.995 H 1.936 C 2.058,-4.4 2.241,-6.01 2.241,-7.497 v -5.826 H 0 Z" /></g><path
           id="path50"
           style="fill:#595e63;fill-opacity:1;fill-rule:nonzero;stroke:none"
           d="m 326.135,270.75 h 2.363 v -13.323 h -2.363 z" /><g
           transform="translate(339.2551,270.9941)"
           id="g52"><path
             id="path54"
             style="fill:#595e63;fill-opacity:1;fill-rule:nonzero;stroke:none"
             d="M 0,0 C 1.63,0 2.954,-0.795 3.789,-1.691 L 2.485,-3.158 c -0.692,0.673 -1.446,1.1 -2.465,1.1 -2.179,0 -3.748,-1.834 -3.748,-4.827 0,-3.036 1.447,-4.87 3.666,-4.87 1.182,0 2.059,0.489 2.812,1.325 l 1.304,-1.447 c -1.079,-1.242 -2.465,-1.935 -4.156,-1.935 -3.382,0 -6.05,2.445 -6.05,6.865 C -6.152,-2.588 -3.422,0 0,0" /></g><g
           transform="translate(353.1306,262.8867)"
           id="g56"><path
             id="path58"
             style="fill:#595e63;fill-opacity:1;fill-rule:nonzero;stroke:none"
             d="M 0,0 -0.468,1.63 C -0.875,3.035 -1.283,4.563 -1.67,6.03 H -1.752 C -2.119,4.542 -2.505,3.035 -2.934,1.63 L -3.401,0 Z m 0.53,-1.854 h -4.461 l -1.04,-3.606 h -2.423 l 4.359,13.323 h 2.771 L 4.074,-5.46 H 1.569 Z" /></g><g
           transform="translate(370.3489,259.3418)"
           id="g60"><path
             id="path62"
             style="fill:#595e63;fill-opacity:1;fill-rule:nonzero;stroke:none"
             d="M 0,0 C 2.689,0 4.237,1.527 4.237,4.808 4.237,8.067 2.689,9.493 0,9.493 H -1.019 V 0 Z m -3.382,11.408 h 3.545 c 4.074,0 6.498,-2.2 6.498,-6.6 0,-4.421 -2.424,-6.723 -6.376,-6.723 h -3.667 z" /></g><g
           transform="translate(381.657,270.75)"
           id="g64"><path
             id="path66"
             style="fill:#595e63;fill-opacity:1;fill-rule:nonzero;stroke:none"
             d="M 0,0 H 8.006 V -1.996 H 2.363 V -5.399 H 7.151 V -7.396 H 2.363 v -3.93 H 8.21 v -1.997 H 0 Z" /></g><g
           transform="translate(396.8977,264.5166)"
           id="g68"><path
             id="path70"
             style="fill:#595e63;fill-opacity:1;fill-rule:nonzero;stroke:none"
             d="m 0,0 h 1.874 c 1.834,0 2.812,0.773 2.812,2.281 0,1.528 -0.978,2.057 -2.812,2.057 H 0 Z M 4.889,-7.09 2.017,-1.874 H 0 V -7.09 H -2.363 V 6.233 h 4.482 c 2.77,0 4.909,-0.977 4.909,-3.952 0,-2.037 -1.059,-3.26 -2.669,-3.809 L 7.537,-7.09 Z" /></g><g
           transform="translate(408.675,270.75)"
           id="g72"><path
             id="path74"
             style="fill:#595e63;fill-opacity:1;fill-rule:nonzero;stroke:none"
             d="M 0,0 H 2.587 L 4.991,-6.56 5.867,-9.086 H 5.949 L 6.824,-6.56 9.167,0 h 2.608 V -13.323 H 9.554 v 6.091 c 0,1.243 0.184,3.014 0.306,4.237 H 9.778 L 8.698,-6.03 6.396,-12.081 H 5.316 L 3.015,-6.03 1.956,-2.995 H 1.875 C 1.976,-4.218 2.16,-5.989 2.16,-7.232 v -6.091 H 0 Z" /></g><g
           transform="translate(431.4333,262.8867)"
           id="g76"><path
             id="path78"
             style="fill:#595e63;fill-opacity:1;fill-rule:nonzero;stroke:none"
             d="M 0,0 -0.468,1.63 C -0.875,3.035 -1.283,4.563 -1.67,6.03 H -1.752 C -2.119,4.542 -2.505,3.035 -2.934,1.63 L -3.401,0 Z m 0.529,-1.854 h -4.46 l -1.04,-3.606 h -2.424 l 4.36,13.323 h 2.77 L 4.074,-5.46 H 1.569 Z" /></g><g
           transform="translate(440.97,268.7539)"
           id="g80"><path
             id="path82"
             style="fill:#595e63;fill-opacity:1;fill-rule:nonzero;stroke:none"
             d="M 0,0 H -3.85 V 1.996 H 6.193 V 0 H 2.363 V -11.327 H 0 Z" /></g><g
           transform="translate(459.429,264.1494)"
           id="g84"><path
             id="path86"
             style="fill:#595e63;fill-opacity:1;fill-rule:nonzero;stroke:none"
             d="m 0,0 c 0,2.975 -1.364,4.787 -3.442,4.787 -2.099,0 -3.463,-1.812 -3.463,-4.787 0,-2.995 1.364,-4.91 3.463,-4.91 C -1.364,-4.91 0,-2.995 0,0 m -9.33,0 c 0,4.298 2.404,6.845 5.888,6.845 3.463,0 5.867,-2.547 5.867,-6.845 0,-4.318 -2.404,-6.967 -5.867,-6.967 -3.484,0 -5.888,2.649 -5.888,6.967" /></g><g
           transform="translate(466.4817,270.75)"
           id="g88"><path
             id="path90"
             style="fill:#595e63;fill-opacity:1;fill-rule:nonzero;stroke:none"
             d="m 0,0 h 2.363 v -11.326 h 5.52 v -1.997 H 0 Z" /></g><g
           transform="translate(483.8,271.7685)"
           id="g92"><path
             id="path94"
             style="fill:#595e63;fill-opacity:1;fill-rule:nonzero;stroke:none"
             d="m 0,0 h -1.915 l 1.731,2.363 h 2.547 z m 2.831,-7.619 c 0,2.974 -1.364,4.787 -3.442,4.787 -2.099,0 -3.463,-1.813 -3.463,-4.787 0,-2.995 1.364,-4.91 3.463,-4.91 2.078,0 3.442,1.915 3.442,4.91 m -9.33,0 c 0,4.298 2.404,6.845 5.888,6.845 3.463,0 5.867,-2.547 5.867,-6.845 0,-4.319 -2.404,-6.967 -5.867,-6.967 -3.484,0 -5.888,2.648 -5.888,6.967" /></g><g
           transform="translate(499.3259,270.9941)"
           id="g96"><path
             id="path98"
             style="fill:#595e63;fill-opacity:1;fill-rule:nonzero;stroke:none"
             d="M 0,0 C 1.854,0 3.137,-0.836 3.973,-1.691 L 2.669,-3.158 c -0.673,0.652 -1.406,1.1 -2.648,1.1 -2.363,0 -3.952,-1.834 -3.952,-4.827 0,-3.036 1.426,-4.87 4.094,-4.87 0.733,0 1.466,0.204 1.895,0.592 v 2.872 h -2.506 v 1.936 h 4.624 v -5.868 c -0.917,-0.855 -2.485,-1.589 -4.299,-1.589 -3.544,0 -6.233,2.445 -6.233,6.865 C -6.356,-2.588 -3.585,0 0,0" /></g><path
           id="path100"
           style="fill:#595e63;fill-opacity:1;fill-rule:nonzero;stroke:none"
           d="m 508.394,270.75 h 2.363 v -13.323 h -2.363 z" /><g
           transform="translate(521.5154,270.9941)"
           id="g102"><path
             id="path104"
             style="fill:#595e63;fill-opacity:1;fill-rule:nonzero;stroke:none"
             d="M 0,0 C 1.63,0 2.953,-0.795 3.789,-1.691 L 2.485,-3.158 c -0.693,0.673 -1.446,1.1 -2.465,1.1 -2.179,0 -3.749,-1.834 -3.749,-4.827 0,-3.036 1.447,-4.87 3.667,-4.87 1.182,0 2.059,0.489 2.812,1.325 l 1.303,-1.447 c -1.079,-1.242 -2.464,-1.935 -4.156,-1.935 -3.381,0 -6.049,2.445 -6.049,6.865 C -6.152,-2.588 -3.422,0 0,0" /></g><g
           transform="translate(535.3909,262.8867)"
           id="g106"><path
             id="path108"
             style="fill:#595e63;fill-opacity:1;fill-rule:nonzero;stroke:none"
             d="m 0,0 -0.468,1.63 c -0.407,1.405 -0.815,2.933 -1.203,4.4 H -1.752 C -2.119,4.542 -2.505,3.035 -2.934,1.63 L -3.402,0 Z m 0.529,-1.854 h -4.46 l -1.04,-3.606 h -2.424 l 4.36,13.323 h 2.77 L 4.074,-5.46 H 1.569 Z" /></g><g
           transform="translate(549.2273,270.75)"
           id="g110"><path
             id="path112"
             style="fill:#595e63;fill-opacity:1;fill-rule:nonzero;stroke:none"
             d="M 0,0 H 8.005 V -1.996 H 2.363 V -5.399 H 7.149 V -7.396 H 2.363 v -3.93 h 5.846 v -1.997 H 0 Z" /></g><g
           transform="translate(568.2776,270.75)"
           id="g114"><path
             id="path116"
             style="fill:#595e63;fill-opacity:1;fill-rule:nonzero;stroke:none"
             d="M 0,0 H 8.006 V -1.996 H 2.363 V -5.399 H 7.151 V -7.396 H 2.363 v -3.93 H 8.21 v -1.997 H 0 Z" /></g><g
           transform="translate(581.6033,260.747)"
           id="g118"><path
             id="path120"
             style="fill:#595e63;fill-opacity:1;fill-rule:nonzero;stroke:none"
             d="m 0,0 c 0.958,-0.896 2.241,-1.508 3.484,-1.508 1.487,0 2.322,0.673 2.322,1.712 0,1.1 -0.855,1.446 -2.077,1.955 L 1.915,2.954 c -1.324,0.55 -2.689,1.589 -2.689,3.545 0,2.118 1.874,3.748 4.462,3.748 1.568,0 3.075,-0.651 4.115,-1.691 L 6.581,7.049 C 5.745,7.762 4.829,8.189 3.688,8.189 2.425,8.189 1.61,7.599 1.61,6.621 1.61,5.582 2.628,5.195 3.729,4.747 L 5.521,3.993 C 7.11,3.321 8.21,2.322 8.21,0.388 c 0,-2.159 -1.793,-3.952 -4.788,-3.952 -1.792,0 -3.524,0.712 -4.786,1.956 z" /></g><g
           transform="translate(596.4783,268.7539)"
           id="g122"><path
             id="path124"
             style="fill:#595e63;fill-opacity:1;fill-rule:nonzero;stroke:none"
             d="M 0,0 H -3.851 V 1.996 H 6.193 V 0 H 2.363 V -11.327 H 0 Z" /></g><g
           transform="translate(611.5964,271.7685)"
           id="g126"><path
             id="path128"
             style="fill:#595e63;fill-opacity:1;fill-rule:nonzero;stroke:none"
             d="m 0,0 h -1.895 l 1.711,2.363 h 2.567 z m -4.747,-1.019 h 8.006 v -1.996 h -5.643 v -3.403 h 4.788 v -1.996 h -4.788 v -3.931 h 5.847 v -1.997 h -8.21 z" /></g><g
           transform="translate(622.4163,268.7539)"
           id="g130"><path
             id="path132"
             style="fill:#595e63;fill-opacity:1;fill-rule:nonzero;stroke:none"
             d="M 0,0 H -3.85 V 1.996 H 6.193 V 0 H 2.363 V -11.327 H 0 Z" /></g><path
           id="path134"
           style="fill:#595e63;fill-opacity:1;fill-rule:nonzero;stroke:none"
           d="m 632.788,270.75 h 2.363 v -13.323 h -2.363 z" /><g
           transform="translate(645.9084,270.9941)"
           id="g136"><path
             id="path138"
             style="fill:#595e63;fill-opacity:1;fill-rule:nonzero;stroke:none"
             d="M 0,0 C 1.63,0 2.955,-0.795 3.789,-1.691 L 2.485,-3.158 c -0.692,0.673 -1.445,1.1 -2.464,1.1 -2.18,0 -3.749,-1.834 -3.749,-4.827 0,-3.036 1.447,-4.87 3.667,-4.87 1.182,0 2.058,0.489 2.811,1.325 l 1.304,-1.447 c -1.08,-1.242 -2.465,-1.935 -4.155,-1.935 -3.382,0 -6.051,2.445 -6.051,6.865 C -6.152,-2.588 -3.422,0 0,0" /></g><g
           transform="translate(659.7849,262.8867)"
           id="g140"><path
             id="path142"
             style="fill:#595e63;fill-opacity:1;fill-rule:nonzero;stroke:none"
             d="M 0,0 -0.469,1.63 C -0.876,3.035 -1.284,4.563 -1.67,6.03 H -1.752 C -2.119,4.542 -2.506,3.035 -2.934,1.63 L -3.403,0 Z M 0.529,-1.854 H -3.932 L -4.971,-5.46 h -2.425 l 4.36,13.323 h 2.77 L 4.074,-5.46 H 1.568 Z" /></g><g
           transform="translate(554.4104,337.3466)"
           id="g144"><path
             id="path146"
             style="fill:#4dc3c1;fill-opacity:1;fill-rule:nonzero;stroke:none"
             d="m 0,0 h -6.704 v -53.339 h 31.711 v 6.346 l -25.007,0 z" /></g><g
           transform="translate(596.9363,337.3466)"
           id="g148"><path
             id="path150"
             style="fill:#4dc3c1;fill-opacity:1;fill-rule:nonzero;stroke:none"
             d="m 0,0 h -6.704 v -53.339 h 31.71 v 6.346 l -25.006,0 z" /></g><g
           transform="translate(662.95,331.1465)"
           id="g152"><path
             id="path154"
             style="fill:#4dc3c1;fill-opacity:1;fill-rule:nonzero;stroke:none"
             d="M 0,0 V 6.2 H -32.285 V -47.138 H 0 v 6.346 h -25.652 v 18.014 h 24.358 v 6.272 H -25.652 V 0 Z" /></g><g
           transform="translate(509.4119,308.3681)"
           id="g156"><path
             id="path158"
             style="fill:#4dc3c1;fill-opacity:1;fill-rule:nonzero;stroke:none"
             d="M 0,0 H 24.358 V 6.271 H 0 v 16.506 h 25.436 v 6.202 H -6.633 V -24.36 h 32.285 v 6.345 H 0 Z" /></g><g
           transform="translate(358.3269,306.8388)"
           id="g160"><path
             id="path162"
             style="fill:#595e63;fill-opacity:1;fill-rule:nonzero;stroke:none"
             d="m 0,0 h 21.392 c -0.627,-4.961 -2.657,-9.151 -5.893,-12.15 -3.435,-3.183 -8.052,-4.865 -13.353,-4.865 -2.866,0 -5.561,0.52 -8.007,1.546 -2.377,0.998 -4.47,2.449 -6.219,4.315 -1.755,1.871 -3.122,4.11 -4.062,6.656 -0.969,2.628 -1.461,5.52 -1.461,8.597 0,2.994 0.491,5.816 1.46,8.389 0.938,2.494 2.305,4.699 4.06,6.552 1.752,1.849 3.847,3.3 6.227,4.314 2.452,1.042 5.148,1.596 8.002,1.644 8.624,0 14.239,-3.254 17.166,-9.948 l 0.427,-0.97 h 6.676 l -0.808,2.183 c -1.541,4.184 -3.94,7.57 -7.128,10.064 -4.181,3.272 -9.651,4.93 -16.26,4.93 -15.238,0 -26.297,-11.422 -26.297,-27.158 0,-3.95 0.645,-7.67 1.917,-11.058 1.247,-3.32 3.064,-6.246 5.403,-8.697 2.342,-2.455 5.14,-4.364 8.314,-5.672 3.244,-1.339 6.807,-2.019 10.59,-2.019 10.989,0 19.562,5.372 23.52,14.733 1.583,3.649 2.329,7.79 2.345,13.032 l 0.002,1.625 H 0 Z" /></g><g
           transform="translate(301.7302,337.3388)"
           id="g164"><path
             id="path166"
             style="fill:#595e63;fill-opacity:1;fill-rule:nonzero;stroke:none"
             d="m 0,0 -24.043,-50.988 v -2.37 l 6.401,-0.027 8.418,18.555 11.04,23.665 8.663,-18.677 H -2.463 l -3.024,-6.532 h 18.986 l 7.784,-16.991 h 6.22 l 0.056,2.311 L 3.656,0 Z" /></g><g
           transform="translate(414.8127,337.3388)"
           id="g168"><path
             id="path170"
             style="fill:#595e63;fill-opacity:1;fill-rule:nonzero;stroke:none"
             d="m 0,0 -24.044,-50.988 v -2.37 l 6.401,-0.027 8.419,18.555 11.039,23.665 8.664,-18.677 H -2.463 l -3.025,-6.532 h 18.987 l 7.783,-16.991 h 6.222 l 0.055,2.312 L 3.655,0 Z" /></g><g
           transform="translate(473.0535,337.3437)"
           id="g172"><path
             id="path174"
             style="fill:#4dc3c1;fill-opacity:1;fill-rule:nonzero;stroke:none"
             d="m 0,0 c -1.873,0.021 -3.927,0.031 -6.462,0.031 -2.209,0 -4.453,-0.008 -6.559,-0.015 l -0.39,-0.001 C -15.356,0.007 -17.362,0 -19.356,0 h -1.624 v -53.33 h 6.627 v 16.951 0.053 6.409 0.798 22.779 h 14.335 c 3.533,0 6.697,-1.172 8.911,-3.301 2.203,-2.12 3.416,-5.146 3.416,-8.523 0,-6.81 -5.184,-11.753 -12.327,-11.753 h -9.961 v -6.409 h 9.961 c 10.982,0 18.953,7.608 18.953,18.091 C 18.935,-7.669 10.969,0 0,0" /></g></g></g></g></svg>