<?xml version="1.0"?>
<svg xmlns:dc="http://purl.org/dc/elements/1.1/" xmlns:cc="http://creativecommons.org/ns#" xmlns:rdf="http://www.w3.org/1999/02/22-rdf-syntax-ns#" xmlns:svg="http://www.w3.org/2000/svg" xmlns="http://www.w3.org/2000/svg" viewBox="484 228 153 240" height="240" width="153" xml:space="preserve" id="svg2" version="1.1"><metadata id="metadata8"><RDF><Work><format>image/svg+xml</format><type></type></Work></RDF></metadata><defs id="defs6"><clipPath id="clipPath38" clipPathUnits="userSpaceOnUse"><path id="path36" d="M 0,595.28 H 841.89 V 0 H 0 Z"></path></clipPath></defs><g transform="matrix(1.3333333,0,0,-1.3333333,0,793.70667)" id="g10"><g id="g32"><g clip-path="url(#clipPath38)" id="g34"><g transform="translate(462.1008,396.7761)" id="g56"><path id="path58" style="fill:#4dc3c1;fill-opacity:1;fill-rule:nonzero;stroke:none" d="m 0,0 c 1.51,-3.655 1.233,-9.685 -0.765,-16.54 -2.627,-9.023 -12.55,-26.51 -26.11,-37.559 -6.509,-5.305 -12.668,-5.783 -14.368,-5.742 -1.698,-0.041 -7.859,0.437 -14.367,5.742 -13.56,11.049 -23.483,28.536 -26.11,37.559 -1.998,6.855 -2.275,12.885 -0.765,16.54 3.256,7.896 25.198,11.854 41.205,12.03 h 0.037 0.038 C -25.199,11.854 -3.256,7.896 0,0"></path></g><g transform="translate(420.8582,357.8386)" id="g60"><path id="path62" style="fill:#049da7;fill-opacity:1;fill-rule:nonzero;stroke:none" d="m 0,0 c -10.185,0 -19.525,3.502 -26.834,9.332 -0.671,0.535 -1.59,-0.285 -1.132,-1.009 4.32,-6.827 10.139,-14.121 16.907,-19.636 5.441,-4.434 10.307,-4.573 10.928,-4.573 0.002,0 0.131,0.003 0.131,0.003 l 0.19,-0.003 c 0.539,0 5.415,0.128 10.87,4.574 6.768,5.515 12.587,12.808 16.907,19.636 0.457,0.723 -0.461,1.543 -1.132,1.009 C 19.526,3.503 10.186,0 0,0"></path></g><g transform="translate(459.3684,279.0183)" id="g64"><path id="path66" style="fill:#bde9e4;fill-opacity:1;fill-rule:nonzero;stroke:none" d="m 0,0 h -23.603 c -0.604,0 -1.093,0.481 -1.093,1.074 0,0.593 0.489,1.073 1.093,1.073 h 22.035 c 2.066,0 3.741,1.646 3.741,3.675 0,2.029 -1.675,3.674 -3.741,3.674 h -15.709 c -0.604,0 -1.094,0.481 -1.094,1.073 0,0.593 0.49,1.075 1.094,1.075 h 12.121 c 2.152,0 3.896,1.711 3.896,3.825 0,2.112 -1.745,3.825 -3.897,3.825 H -22.72 c -0.604,0 -1.093,0.48 -1.093,1.074 0,0.593 0.489,1.073 1.093,1.073 h 12.692 c 1.949,0 3.529,1.552 3.529,3.466 0,1.914 -1.58,3.466 -3.529,3.466 h -12.826 c -0.604,0 -1.094,0.481 -1.094,1.073 0,0.593 0.49,1.075 1.094,1.075 h 7.447 c 1.704,0 3.086,1.356 3.086,3.03 0,1.673 -1.381,3.03 -3.086,3.03 H -29.59 c -0.604,0 -1.094,0.481 -1.094,1.073 0,0.594 0.49,1.075 1.094,1.075 h 7.665 c 1.505,0 2.725,1.198 2.725,2.675 v 10e-4 c 0,1.478 -1.22,2.676 -2.726,2.676 h -10.811 c -0.604,0 -1.094,0.481 -1.094,1.074 0,0.593 0.49,1.074 1.094,1.074 h 2.905 l -0.007,0.009 c 1.205,0 2.145,0.629 2.145,1.727 0,2.322 -5.141,3.649 -10.816,3.651 -5.675,-0.002 -10.816,-1.329 -10.816,-3.651 0,-1.098 0.939,-1.727 2.145,-1.727 l -0.007,-0.009 h 2.904 c 0.604,0 1.094,-0.481 1.094,-1.074 0,-0.593 -0.49,-1.074 -1.094,-1.074 h -10.811 c -1.505,0 -2.725,-1.198 -2.725,-2.676 v -10e-4 c 0,-1.477 1.22,-2.675 2.725,-2.675 h 7.665 c 0.604,0 1.094,-0.481 1.094,-1.075 0,-0.592 -0.49,-1.073 -1.094,-1.073 h -14.183 c -1.705,0 -3.087,-1.357 -3.087,-3.03 0,-1.674 1.382,-3.03 3.087,-3.03 h 7.447 c 0.604,0 1.094,-0.482 1.094,-1.075 0,-0.592 -0.49,-1.073 -1.094,-1.073 h -12.826 c -1.949,0 -3.529,-1.552 -3.529,-3.466 0,-1.914 1.58,-3.466 3.529,-3.466 h 12.691 c 0.604,0 1.094,-0.48 1.094,-1.073 0,-0.594 -0.49,-1.074 -1.094,-1.074 h -17.563 c -2.152,0 -3.896,-1.713 -3.896,-3.825 0,-2.114 1.744,-3.825 3.896,-3.825 h 12.121 c 0.604,0 1.094,-0.482 1.094,-1.075 0,-0.592 -0.49,-1.073 -1.094,-1.073 h -15.709 c -2.066,0 -3.741,-1.645 -3.741,-3.674 0,-2.029 1.675,-3.675 3.741,-3.675 h 22.035 c 0.603,0 1.093,-0.48 1.093,-1.073 C -52.324,0.481 -52.814,0 -53.417,0 H -77.02 c -2.205,0 -3.993,-1.755 -3.993,-3.919 0,-2.165 1.788,-3.92 3.993,-3.92 h 14.623 c 0.604,0 1.093,-0.481 1.093,-1.074 0,-0.593 -0.489,-1.073 -1.093,-1.073 h -10.686 c -0.676,0 -1.337,-0.223 -1.822,-0.648 -1.1,-0.965 -1.041,-2.603 0.725,-3.41 7.943,-3.627 24.009,-5.938 34.918,-6.144 0,-0.01 10e-4,-0.015 10e-4,-0.015 0.242,0 0.49,10e-4 0.739,0.004 h 0.012 0.012 c 0.249,-0.003 0.496,-0.004 0.739,-0.004 0,0 10e-4,0.005 10e-4,0.015 10.908,0.206 26.974,2.517 34.918,6.144 1.766,0.807 1.825,2.445 0.725,3.41 -0.485,0.425 -1.146,0.648 -1.822,0.648 h -10.686 c -0.604,0 -1.093,0.48 -1.093,1.073 0,0.593 0.489,1.074 1.093,1.074 H 0 c 2.205,0 3.992,1.755 3.992,3.92 C 3.992,-1.755 2.205,0 0,0"></path></g></g></g></g></svg>